<svg width="24" height="24" viewBox="0 0 24 24" fill="none" xmlns="http://www.w3.org/2000/svg">
<path d="M11.9978 4.09082C11.6515 4.09082 11.322 4.11981 11.01 4.15871C10.6934 4.19151 10.4203 4.39367 10.2944 4.68583C10.1686 4.978 10.2113 5.31517 10.405 5.56767C10.598 5.82017 10.9131 5.94833 11.2281 5.90256C11.4936 5.86899 11.7476 5.8484 11.9978 5.8484C15.4062 5.8484 18.1494 8.59156 18.1494 11.9999C18.1494 15.4083 15.4062 18.1514 11.9978 18.1514C8.5895 18.1514 5.84633 15.4083 5.84633 11.9999C5.84633 10.8419 6.1713 9.76709 6.72512 8.84634V8.92415C6.72055 9.24073 6.88684 9.53595 7.1607 9.69538C7.43456 9.85558 7.77326 9.85558 8.04712 9.69538C8.32098 9.53595 8.48728 9.24073 8.4827 8.92415V6.28779C8.4827 5.80263 8.08907 5.409 7.60391 5.409H4.96755C4.65097 5.40443 4.35575 5.57072 4.19632 5.84458C4.03612 6.11844 4.03612 6.45714 4.19632 6.731C4.35575 7.00486 4.65097 7.17116 4.96755 7.16658H5.74488C4.70894 8.50383 4.08876 10.1813 4.08876 11.9999C4.08876 16.358 7.63976 19.909 11.9978 19.909C16.3559 19.909 19.9069 16.358 19.9069 11.9999C19.9069 7.64183 16.3559 4.09082 11.9978 4.09082Z" fill="white" stroke="white" stroke-width="0.359862"/>
</svg>
