<svg width="53" height="49" viewBox="0 0 53 49" fill="none" xmlns="http://www.w3.org/2000/svg">
<path fill-rule="evenodd" clip-rule="evenodd" d="M7.66667 0C3.46286 0 0 3.23702 0 7.16667V38.2222C0 40.8619 2.28722 43 5.11111 43H21.7677C21.3553 42.1003 21.0625 41.0831 21.0625 40C21.0625 38.0039 22.057 36.2319 22.9616 35.0058C23.9591 33.6538 25.3041 32.3496 26.8499 31.2147C29.918 28.9622 34.2155 27.0625 39 27.0625C41.5019 27.0625 43.8706 27.5819 46 28.3997V14.3333C46 11.6936 43.7128 9.55556 40.8889 9.55556H7.66667C6.2227 9.55556 5.11111 8.51646 5.11111 7.16667C5.11111 5.81687 6.2227 4.77778 7.66667 4.77778H41.0556C42.3749 4.77778 43.4445 3.70824 43.4445 2.38889C43.4445 1.06954 42.3749 0 41.0556 0H7.66667ZM25 40C25 37.0365 31.4804 31 39 31C46.5196 31 53 37.0365 53 40C53 42.9635 46.5196 49 39 49C31.4804 49 25 42.9635 25 40ZM45.2222 40C45.2222 36.6865 42.4363 34 39 34C35.5637 34 32.7778 36.6865 32.7778 40C32.7778 43.3135 35.5637 46 39 46C42.4363 46 45.2222 43.3135 45.2222 40ZM36.4074 40C36.4074 38.6194 37.5683 37.5 39 37.5C40.4317 37.5 41.5926 38.6194 41.5926 40C41.5926 41.3806 40.4317 42.5 39 42.5C37.5683 42.5 36.4074 41.3806 36.4074 40Z" fill="#65656E"/>
</svg>
